<svg xmlns="http://www.w3.org/2000/svg" xmlns:xlink="http://www.w3.org/1999/xlink" width="2380" zoomAndPan="magnify" viewBox="0 0 1784.88 1784.99993" height="2380" preserveAspectRatio="xMidYMid meet" version="1.0"><defs><g/><clipPath id="a387cdf02c"><path d="M 0 0.0585938 L 1784.761719 0.0585938 L 1784.761719 1784.9375 L 0 1784.9375 Z M 0 0.0585938 " clip-rule="nonzero"/></clipPath><clipPath id="6a7a84f598"><path d="M 0 0.0585938 L 1784.761719 0.0585938 L 1784.761719 1784.9375 L 0 1784.9375 Z M 0 0.0585938 " clip-rule="nonzero"/></clipPath><clipPath id="d4274b789e"><rect x="0" width="1140" y="0" height="989"/></clipPath><clipPath id="affc8270ff"><rect x="0" width="1785" y="0" height="1785"/></clipPath></defs><g clip-path="url(#a387cdf02c)"><path fill="#ffffff" d="M 0 0.0585938 L 1784.878906 0.0585938 L 1784.878906 1784.941406 L 0 1784.941406 Z M 0 0.0585938 " fill-opacity="1" fill-rule="nonzero"/><g transform="matrix(1, 0, 0, 1, -0, 0.000000000000129986)"><g clip-path="url(#affc8270ff)"><g clip-path="url(#6a7a84f598)"><path fill="#cfffb1" d="M 0 0.0585938 L 1785 0.0585938 L 1785 1785.058594 L 0 1785.058594 Z M 0 0.0585938 " fill-opacity="1" fill-rule="nonzero"/></g><g transform="matrix(1, 0, 0, 1, 323, 480)"><g clip-path="url(#d4274b789e)"><g fill="#353535" fill-opacity="1"><g transform="translate(0.473981, 738.086926)"><g><path d="M 281.015625 22.75 C 205.148438 22.75 144.457031 4.773438 98.9375 -31.171875 C 53.425781 -67.117188 25.394531 -117.085938 14.84375 -181.078125 L 160.296875 -229.5625 C 166.234375 -192.613281 179.425781 -163.75 199.875 -142.96875 C 220.320312 -122.195312 246.046875 -111.8125 277.046875 -111.8125 C 306.078125 -111.8125 328.671875 -121.375 344.828125 -140.5 C 360.992188 -159.632812 369.078125 -186.351562 369.078125 -220.65625 L 370.0625 -704.484375 L 539.25 -704.484375 L 539.25 -210.75 C 539.25 -136.875 516.328125 -79.488281 470.484375 -38.59375 C 424.640625 2.300781 361.484375 22.75 281.015625 22.75 Z M 281.015625 22.75 "/></g></g></g><g fill="#353535" fill-opacity="1"><g transform="translate(584.263427, 738.086926)"><g><path d="M 54.421875 0 L 54.421875 -704.484375 L 536.28125 -704.484375 L 536.28125 -560.03125 L 223.625 -560.03125 L 223.625 -393.8125 L 477.90625 -393.8125 L 477.90625 -265.171875 L 223.625 -265.171875 L 223.625 0 Z M 54.421875 0 "/></g></g></g></g></g></g></g></g></svg>